<svg width="34" height="51" viewBox="0 0 34 51" xmlns="http://www.w3.org/2000/svg"><title>marker</title><path d="M17 .498C7.635.498 0 8.053 0 17.32c0 2.628 1.077 5.645 2.538 8.936 1.461 3.291 3.344 6.787 5.254 10.047a189.697 189.697 0 0 0 7.674 11.973L17 50.496l1.535-2.22s3.852-5.456 7.674-11.973c1.909-3.26 3.792-6.755 5.253-10.047C32.922 22.965 34 19.948 34 17.32 34 8.053 26.365.498 17 .498zm0 3.739c7.325 0 13.222 5.835 13.222 13.083 0 1.501-.811 4.328-2.184 7.418-1.372 3.09-3.267 6.512-5.136 9.696-2.968 5.067-4.81 7.745-5.902 9.345-1.092-1.6-2.934-4.279-5.902-9.346-1.869-3.183-3.764-6.605-5.136-9.695-1.373-3.09-2.184-5.917-2.184-7.418C3.778 10.072 9.675 4.236 17 4.236zm0 9.345c-2.087 0-3.777 1.673-3.777 3.738s1.69 3.738 3.777 3.738 3.777-1.673 3.777-3.738-1.69-3.739-3.777-3.739z" fill="#3B3B3B" fill-rule="evenodd"/></svg>